<svg width="24" height="25" viewBox="0 0 24 25" fill="none" xmlns="http://www.w3.org/2000/svg">
<path opacity="0.4" d="M21.5 5.55718C21.5 4.45591 20.4486 3.44849 19 3.44849H5C3.55138 3.44849 2.5 4.45591 2.5 5.55718V20.3398C2.5 21.4411 3.55138 22.4485 5 22.4485H19C20.4486 22.4485 21.5 21.4411 21.5 20.3398V5.55718Z" stroke="white"/>
<rect width="9" height="16" rx="2" transform="matrix(-1 0 0 1 20 4.94849)" fill="white"/>
<path opacity="0.4" d="M7.32613 10.9576C7.2794 10.9762 7.2489 11.0196 7.2489 11.0678V12.3736H4.12496C4.05599 12.3736 4 12.4269 4 12.4927V14.3994C4 14.4651 4.05599 14.5185 4.12496 14.5185H7.24892V15.8293C7.24892 15.8775 7.27941 15.9208 7.32589 15.9394C7.37262 15.9578 7.42636 15.9478 7.4621 15.9137L9.96326 13.5364C9.98675 13.514 10 13.4837 10 13.452C10 13.4203 9.98675 13.39 9.96351 13.3676L7.46235 10.9834C7.42659 10.9493 7.37287 10.9391 7.32613 10.9576Z" fill="white"/>
</svg>
